<?xml version="1.0" encoding="utf-8"?>
<!-- Generator: Adobe Illustrator 15.0.0, SVG Export Plug-In . SVG Version: 6.00 Build 0)  -->
<!DOCTYPE svg PUBLIC "-//W3C//DTD SVG 1.1//EN" "http://www.w3.org/Graphics/SVG/1.1/DTD/svg11.dtd">
<svg version="1.1" id="Layer_1" xmlns="http://www.w3.org/2000/svg" xmlns:xlink="http://www.w3.org/1999/xlink" x="0px" y="0px"
	 width="568.621px" height="60.296px" viewBox="0 0 568.621 60.296" enable-background="new 0 0 568.621 60.296"
	 xml:space="preserve">
<path fill="#FFCC00" d="M5.23,6.355c0-2.021-0.473-2.97-2.02-2.97H0.477C0.117,3.386,0,3.265,0,2.847V1.48
	c0-0.354,0.117-0.474,0.594-0.474c0.594,0,3.445,0.178,9.156,0.178c4.988,0,7.844-0.178,8.559-0.178
	c0.355,0,0.479,0.119,0.479,0.412V2.91c0,0.354-0.123,0.476-0.479,0.476h-2.496c-1.783,0-2.852,1.065-2.914,2.314
	c-0.055,0.714-0.176,4.283-0.176,7.729v7.375c0,2.969,0.054,7.191,0.176,9.092c0.182,2.736,0.652,5.47,2.08,7.371
	C17,40,20.211,40.952,23.064,40.952c2.732,0,6.066-1.069,7.963-2.854c2.262-2.258,3.451-5.705,3.451-10.049V17.353
	c0-4.752-0.479-9.986-0.656-11.354c-0.178-1.548-1.127-2.613-2.438-2.613H29.25c-0.361,0-0.479-0.182-0.479-0.418V1.48
	c0-0.354,0.117-0.474,0.479-0.474c0.59,0,3.324,0.178,7.25,0.178c3.684,0,5.584-0.178,6.062-0.178c0.531,0,0.594,0.178,0.594,0.474
	v1.366c0,0.357-0.062,0.539-0.357,0.539H40.66c-2.139,0-2.383,1.663-2.5,2.314c-0.117,0.714-0.117,9.039-0.117,9.811
	c0,0.832-0.117,11.174-0.354,13.553c-0.357,4.875-1.787,8.559-4.994,11.412c-2.496,2.26-6.301,3.688-10.824,3.688
	c-2.85,0-6.297-0.477-8.557-1.428c-3.445-1.426-5.822-4.16-7.018-7.967C5.465,32.155,5.23,28.233,5.23,20.444V6.355z"/>
<path fill="#FFCC00" d="M44.824,30.013c0.234,0,0.354,0.121,0.354,0.477c0.123,1.902,0.599,4.164,2.262,6.779
	c1.781,2.852,4.873,4.277,7.846,4.277c3.207,0,7.729-2.021,7.729-6.955c0-5.469-2.498-7.252-8.799-9.627
	c-1.902-0.715-5.824-2.381-8.68-4.994c-2.02-1.902-2.971-4.877-2.971-8.504c0-3.326,1.307-6.062,4.16-8.321
	c2.379-2.021,4.994-2.854,8.439-2.854c3.926,0,6.301,0.952,7.488,1.429c0.598,0.238,0.953,0.121,1.252-0.18l0.775-0.773
	c0.238-0.236,0.473-0.354,0.828-0.354c0.359,0,0.478,0.354,0.478,0.951c0,0.951,0.952,9.273,0.952,9.866
	c0,0.235-0.117,0.354-0.359,0.417l-0.951,0.295c-0.236,0.062-0.475,0-0.592-0.357c-0.594-1.662-1.547-4.039-3.688-6.299
	c-1.545-1.666-3.445-2.494-6.184-2.494c-4.75,0-6.656,3.803-6.656,6.002c0,2.021,0.238,3.802,1.664,5.348
	c1.547,1.548,4.875,2.973,7.252,3.688c3.451,1.068,6.305,2.26,8.562,4.639c1.903,2.02,2.972,4.513,2.972,8.497
	c0,7.251-4.758,13.195-12.602,13.195c-4.872,0-7.725-1.066-10.102-2.854c-0.719-0.472-1.076-0.71-1.43-0.71
	c-0.355,0-0.594,0.475-0.953,1.068c-0.355,0.594-0.592,0.715-1.07,0.715c-0.473,0-0.715-0.358-0.715-0.951
	c0.125-0.715,0.953-10.344,1.07-11.059c0.059-0.357,0.123-0.475,0.359-0.475L44.824,30.013z"/>
<path fill="#FFCC00" d="M109.617,33.579c0.176,0.181,0.238,0.357,0.118,0.597c-3.567,5.114-9.274,9.985-17.716,9.985
	c-7.605,0-11.885-2.256-15.57-5.586c-4.4-3.926-6.422-10.82-6.422-16.051c0-5.827,1.904-11.412,6.064-15.93
	c3.209-3.449,8.322-6.304,15.455-6.304c5.469,0,9.863,1.667,12.004,2.854c0.836,0.477,1.076,0.477,1.193,0l0.475-1.545
	c0.117-0.357,0.234-0.357,0.949-0.357s0.836,0.12,0.836,0.952c0,1.069,1.186,10.581,1.422,12.363c0.06,0.356,0,0.534-0.236,0.593
	l-1.127,0.357c-0.297,0.119-0.479-0.118-0.656-0.594c-0.715-2.139-2.141-5.111-4.637-7.728c-2.615-2.497-5.707-4.399-10.34-4.399
	c-9.514,0-13.439,8.561-13.439,17.121c0,3.685,1.068,10.701,5.473,15.455C87.387,39.524,90.832,40,93.688,40
	c6.535,0,11.707-3.269,14.207-6.892c0.295-0.418,0.531-0.596,0.711-0.418L109.617,33.579z"/>
<path fill="#FFFFFF" d="M119.779,41.677c-0.729-0.546-1.09-0.73-1.393-0.73c-0.365,0-0.605,0.426-0.973,1.031
	c-0.363,0.668-0.664,0.729-1.092,0.729c-0.357,0-0.662-0.303-0.541-0.971c0.242-1.514,0.846-9.211,1.027-10.965
	c0.059-0.367,0.184-0.367,0.427-0.367l0.905,0.061c0.246,0,0.365,0.12,0.365,0.484c0.062,1.939,0.184,3.939,2.182,7.03
	c1.818,2.849,5.15,4.485,8.484,4.485c3.633,0,8.242-2.242,8.242-7.697c0-6.242-4.484-8.543-9.332-10.241
	c-1.879-0.665-6.24-2.181-8.847-4.909c-2-1.999-3.03-4.847-3.03-8.844c0-3.033,1.877-6.002,3.76-7.757
	c2.176-2.062,5.205-2.911,8.48-2.911c3.451,0,6.117,1.033,7.152,1.518c0.543,0.303,0.848,0.242,1.148-0.064l0.787-0.725
	c0.303-0.242,0.486-0.363,0.787-0.363c0.305,0,0.484,0.484,0.484,1.028c0,2.122,0.791,8.304,0.85,9.638
	c0,0.303-0.059,0.423-0.303,0.482l-0.727,0.182c-0.184,0.062-0.305,0-0.365-0.182c-0.482-1.758-1.271-4.117-3.754-6.723
	c-1.637-1.76-3.758-2.607-6.607-2.607c-5.393,0-7.329,3.998-7.329,7.09c0,1.697,0.36,3.693,1.876,5.273
	c1.758,1.756,5.15,3.089,6.908,3.633c4.182,1.332,7.576,2.365,9.757,5.031c1.573,1.878,2.666,4.24,2.666,8.241
	c0,7.149-4.362,13.271-12.362,13.271C125.17,44.827,122.199,43.552,119.779,41.677"/>
<path fill="#FFFFFF" d="M148.867,29.251c0,3.273,1.453,6.97,3.092,9.214c1.998,2.604,4.545,3.089,6.608,3.089
	c3.026,0,4.601-0.668,6.663-2.605c0.121-0.12,0.305-0.184,0.484,0l0.605,0.605c0.242,0.244,0.305,0.424,0,0.786
	c-1.758,2.004-5.633,4.304-9.758,4.304c-3.209,0-6.605-0.727-9.391-4.24c-2.242-2.971-2.727-5.516-2.727-8.24
	c0-7.09,4.969-14.242,12.969-14.242c6.299,0,8.238,3.637,8.238,4.906c-0.059,1.396-0.967,2.125-2.238,2.125
	c-1.395,0-2.426-0.791-3.336-2.425c-1.332-2.485-2.605-2.666-4.062-2.666C152.567,19.861,148.867,23.011,148.867,29.251"/>
<path fill="#FFFFFF" d="M172.141,10.894c0-3.699-0.729-4.365-2.907-5.09l-1.032-0.367c-0.361-0.121-0.422-0.18-0.422-0.363V4.528
	c0-0.24,0.182-0.301,0.725-0.604l6.305-3.333c0.484-0.241,0.906-0.486,1.395-0.486c0.364,0,0.602,0.486,0.482,1.518
	c-0.118,1.027-0.186,13.329-0.186,16.361v3.877h0.305c2.125-2.544,5.64-3.939,8.306-3.939c2.544,0,4.302,0.787,5.995,2.424
	c2.73,2.545,2.607,5.637,2.607,8.906v3.457c0,3.391,0.123,7.148,0.123,8.303c0,0.725,0.969,0.908,2.242,0.908h1.027
	c0.486,0,0.672,0.119,0.672,0.545v0.908c0,0.483-0.126,0.725-0.49,0.725c-0.424,0-2.365-0.178-5.818-0.178
	c-2.971,0-5.148,0.178-5.694,0.178c-0.419,0-0.546-0.178-0.546-0.666v-1.027c0-0.306,0.061-0.484,0.424-0.484h1.393
	c1.033,0,2.244-0.123,2.309-1.151c0.059-0.85,0-4.061,0-6.001v-4.908c0-3.393-0.245-5.816-2.004-7.451
	c-1.209-1.154-2.484-1.699-3.998-1.699c-1.756,0-3.938,0.607-5.635,2.547c-0.549,0.664-1.217,1.879-1.217,2.97v13.21
	c0,1.938,0.186,2.484,1.34,2.484h1.816c0.418,0,0.664,0.119,0.664,0.484v1.027c0,0.425-0.119,0.666-0.484,0.666
	c-0.484,0-2.973-0.178-5.758-0.178c-3.027,0-5.332,0.178-5.877,0.178c-0.24,0-0.422-0.178-0.422-0.604v-1.09
	c0-0.426,0.24-0.484,0.908-0.484h1.273c0.969,0,1.879-0.242,1.996-0.971c0.184-1.15,0.184-7.818,0.184-11.756V10.894z"/>
<path fill="#FFFFFF" d="M219.412,30.708c0-6.727-4.906-10.969-8.004-10.969c-1.631,0-3.211,0.363-4.664,1.941
	c-2.361,2.42-3.211,4.907-3.211,9.512c0,3.394,0.366,5.695,2.307,8.48c1.391,2.003,3.146,3.154,6,3.154
	C216.441,42.827,219.412,37.19,219.412,30.708 M201.895,40.464c-2.781-3.332-3.325-5.576-3.325-9.88
	c0-3.087,1.634-6.966,5.205-9.756c3.151-2.421,6.122-2.905,8.125-2.905c3.329,0,6.663,1.693,8.481,3.514
	c2.725,2.787,4.119,5.938,4.119,9.877c0,6.606-5.938,13.33-13.39,13.33C208.197,44.644,204.441,43.492,201.895,40.464"/>
<path fill="#FFFFFF" d="M247.164,30.708c0-6.727-4.906-10.969-8-10.969c-1.633,0-3.211,0.363-4.66,1.941
	c-2.367,2.42-3.219,4.907-3.219,9.512c0,3.394,0.367,5.695,2.309,8.48c1.393,2.003,3.148,3.154,5.998,3.154
	C244.197,42.827,247.164,37.19,247.164,30.708 M229.652,40.464c-2.785-3.332-3.332-5.576-3.332-9.88
	c0-3.087,1.637-6.966,5.209-9.756c3.152-2.421,6.123-2.905,8.122-2.905c3.334,0,6.666,1.693,8.481,3.514
	c2.73,2.787,4.125,5.938,4.125,9.877c0,6.606-5.94,13.33-13.393,13.33C235.953,44.644,232.195,43.492,229.652,40.464"/>
<path fill="#FFFFFF" d="M262.137,25.86c0,3.152,0,12.3,0.059,14.178c0.062,1.031,0.305,1.879,1.574,1.879h2.729
	c0.545,0,0.67,0.181,0.67,0.545v1.03c0,0.366-0.125,0.604-0.365,0.604c-0.424,0-3.092-0.178-6.85-0.178
	c-3.875,0-6.299,0.178-6.843,0.178c-0.31,0-0.429-0.238-0.429-0.604v-1.03c0-0.423,0.119-0.545,0.791-0.545h2.908
	c0.666,0,1.271-0.423,1.33-1.514c0.066-1.88,0.066-12.303,0.066-15.818V20.77c0-4.302-0.066-9.817-0.186-11.392
	c-0.119-2.062-1.088-3.029-3.033-3.635l-1.211-0.428c-0.301-0.12-0.361-0.179-0.361-0.301V4.528c0-0.182,0.182-0.3,0.545-0.424
	c2.121-0.967,4.85-2.059,7.09-3.515c0.545-0.364,0.91-0.483,1.271-0.483c0.428,0,0.545,0.302,0.488,1.092
	c-0.061,3.33-0.244,15.938-0.244,19.268V25.86z"/>
<path fill="#FFFFFF" d="M297.549,30.601c0-6.727-4.906-10.967-8-10.967c-1.633,0-3.211,0.364-4.66,1.939
	c-2.367,2.421-3.219,4.908-3.219,9.514c0,3.393,0.367,5.695,2.309,8.482c1.395,2,3.15,3.15,5.998,3.15
	C294.582,42.72,297.549,37.087,297.549,30.601 M280.039,40.356c-2.787-3.33-3.334-5.575-3.334-9.877c0-3.09,1.637-6.966,5.211-9.756
	c3.15-2.424,6.121-2.906,8.119-2.906c3.336,0,6.666,1.694,8.486,3.514c2.727,2.787,4.121,5.938,4.121,9.875
	c0,6.607-5.941,13.331-13.393,13.331C286.338,44.537,282.584,43.386,280.039,40.356"/>
<path fill="#FFFFFF" d="M307.494,21.45h-4.18c-0.305,0-0.423-0.119-0.305-0.666l0.244-1.817c0.061-0.364,0.242-0.425,0.727-0.425
	h3.514v-1.15c0-5.998,1.699-9.938,4.059-12.604C314.768,1.271,318.101,0,321.496,0c2.842,0,5.51,1.091,5.51,3.392
	c0,1.457-1.573,2.607-2.541,2.607c-0.609,0-1.217-0.122-1.697-0.363c-0.542-0.305-1.215-1.09-1.457-1.395
	c-0.785-0.969-1.637-1.393-2.787-1.393c-1.572,0-3.211,0.424-4.545,2.121c-2.24,2.848-2.121,8.119-2.121,12.359v1.213h7.334
	c0.424,0,0.482,0.365,0.424,0.606l-0.305,2.001c-0.059,0.242-0.301,0.301-0.787,0.301h-6.666v5.393c0,7.152,0,12.727,0.059,13.394
	c0.127,1.028,0.305,1.575,1.578,1.575h3.457c0.545,0,0.664,0.119,0.664,0.486v0.967c0,0.487-0.119,0.728-0.426,0.728
	c-0.363,0-2.605-0.182-7.27-0.182c-3.332,0-6.424,0.182-6.91,0.182c-0.363,0-0.482-0.12-0.482-0.423v-1.334
	c0-0.305,0.119-0.424,0.604-0.424h2.912c1.15,0,1.393-0.726,1.451-2.119V28.298V21.45z"/>
<path fill="#FFFFFF" d="M348.826,22.419c1.209,0.365,3.213,0.547,5.574,0.547c3.698,0,6.971-2,8.547-4.121
	c1.332-1.758,1.572-3.998,1.572-6.119c0-7.938-7.389-10.06-10.969-10.06c-1.029,0-3.516,0-4.725,0.425V22.419z M348.826,27.751
	c0,2.853,0.061,11.09,0.121,11.939c0.121,1.332,0.727,1.939,2.002,1.939h3.873c0.428,0,0.488,0.182,0.488,0.423v1.456
	c0,0.302-0.061,0.484-0.547,0.484c-0.848,0-2.725-0.183-8.422-0.183c-5.332,0-7.697,0.183-8.363,0.183
	c-0.424,0-0.484-0.183-0.484-0.424v-1.517c0-0.3,0.061-0.423,0.363-0.423h2.605c2.062,0,2.482-0.303,2.668-1.939
	c0.059-0.604,0.246-10.06,0.246-17.088v-6.969c0-4-0.066-10.605-0.127-11.21c-0.119-1.212-0.725-1.333-2.361-1.333h-3.453
	c-0.305,0-0.367-0.12-0.367-0.486V1.153c0-0.305,0.062-0.428,0.367-0.428c0.668,0,2.844,0.186,8.605,0.186
	c1.088,0,4.662-0.186,6.66-0.186c6.852,0,10.062,0.666,13.516,3.031c2.848,1.938,4.605,5.332,4.605,8.788
	c0,7.634-5.758,12.36-15.39,12.36c-2.243,0-4.669-0.062-6.606-0.305V27.751z"/>
<path fill="#FFFFFF" d="M375.127,10.786c0-3.697-0.727-4.363-2.906-5.091l-1.033-0.363c-0.361-0.122-0.42-0.183-0.42-0.363V4.423
	c0-0.242,0.184-0.303,0.729-0.607l6.299-3.332C378.283,0.241,378.701,0,379.186,0c0.367,0,0.609,0.483,0.488,1.517
	c-0.121,1.029-0.184,13.33-0.184,16.359v3.88h0.305c2.121-2.548,5.638-3.938,8.304-3.938c2.543,0,4.3,0.786,5.997,2.424
	c2.727,2.541,2.605,5.633,2.605,8.906v3.455c0,3.392,0.121,7.15,0.121,8.302c0,0.727,0.973,0.907,2.242,0.907h1.034
	c0.481,0,0.665,0.119,0.665,0.545v0.908c0,0.487-0.125,0.729-0.488,0.729c-0.424,0-2.363-0.183-5.814-0.183
	c-2.971,0-5.151,0.183-5.697,0.183c-0.422,0-0.547-0.183-0.547-0.666v-1.029c0-0.305,0.062-0.486,0.426-0.486h1.391
	c1.031,0,2.246-0.122,2.307-1.15c0.059-0.85,0-4.059,0-6v-4.91c0-3.391-0.244-5.815-2.002-7.45
	c-1.209-1.153-2.484-1.699-3.998-1.699c-1.758,0-3.938,0.608-5.635,2.548c-0.543,0.666-1.215,1.877-1.215,2.969v13.21
	c0,1.937,0.184,2.483,1.332,2.483h1.82c0.422,0,0.668,0.119,0.668,0.486v1.029c0,0.425-0.121,0.666-0.486,0.666
	c-0.482,0-2.967-0.183-5.756-0.183c-3.031,0-5.33,0.183-5.881,0.183c-0.236,0-0.42-0.183-0.42-0.605v-1.09
	c0-0.426,0.242-0.486,0.91-0.486h1.273c0.967,0,1.879-0.242,1.996-0.972c0.18-1.149,0.18-7.816,0.18-11.753V10.786z"/>
<path fill="#FFFFFF" d="M416.854,30.479c-2.184,1.636-8.119,2.85-8.119,7.881c0,2.238,1.334,3.329,3.15,3.329
	c1.758,0,4.969-2.12,4.969-3.757V30.479z M421.275,36.599c0,3.455,0.73,4.546,1.816,4.546c0.971,0,1.816-0.483,2.125-0.909
	c0.238-0.304,0.359-0.424,0.604-0.24l0.607,0.482c0.18,0.184,0.301,0.486-0.059,1.092c-0.49,0.908-1.639,2.968-4.729,2.968
	c-2.183,0-3.759-1.573-4.302-4.06h-0.121c-1.275,1.517-3.27,2.789-6,3.699c-1.148,0.36-2.246,0.36-3.574,0.36
	c-1.457,0-3.637-1.21-3.637-5.03c0-2.786,1.273-5.211,6.062-7.328c2.723-1.215,5.873-2.67,6.846-3.515v-3.88
	c-0.119-1.031-0.186-2.604-0.85-3.393c-0.668-0.789-1.879-1.334-3.637-1.334c-1.211,0-3.09,0.485-3.938,1.271
	c-0.848,0.788-0.301,1.699-0.301,2.79c0,2.121-0.73,3.455-3.214,3.455c-0.97,0-1.456-0.547-1.456-1.941
	c0-1.938,1.699-4.24,4.182-5.697c2.547-1.512,4.668-2.117,7.395-2.117c2.85,0,4,0.848,4.844,1.635
	c1.275,1.271,1.336,2.664,1.336,4.301v9.271V36.599z"/>
<path fill="#FFFFFF" d="M431.736,27.692c0-3.092-0.488-3.698-2.184-4.606l-1.148-0.604c-0.367-0.122-0.488-0.183-0.488-0.425v-0.363
	c0-0.244,0.121-0.366,0.488-0.545l5.996-3.092c0.364-0.181,0.605-0.242,0.852-0.242c0.359,0,0.422,0.363,0.422,0.727l0.305,4.182
	h0.238c1.816-2.787,4.668-5.273,7.27-5.273c2.062,0,3.098,1.275,3.098,2.666c0,1.758-1.461,2.97-2.551,2.97
	c-0.662,0-1.269-0.241-1.754-0.483c-0.486-0.303-1.213-0.486-2-0.486c-0.969,0-2.551,0.607-3.578,2.545
	c-0.363,0.666-0.603,1.758-0.603,1.94v12.727c0,1.878,0.423,2.483,1.696,2.483h2.848c0.363,0,0.424,0.183,0.424,0.545v1.09
	c0,0.365-0.061,0.546-0.305,0.546c-0.361,0-3.15-0.181-6.422-0.181c-3.76,0-6.303,0.181-6.666,0.181
	c-0.241,0-0.363-0.12-0.363-0.606v-1.029c0-0.422,0.122-0.545,0.668-0.545h2.363c0.906,0,1.332-0.363,1.332-1.15
	c0.062-2,0.062-4.121,0.062-7.273V27.692z"/>
<path fill="#FFFFFF" d="M468.277,28.298c0-4.484-0.845-5.637-1.822-6.545c-0.785-0.725-2.539-1.092-3.873-1.092
	c-1.58,0-4.119,0.79-5.817,3.516c-0.728,1.213-0.851,2.363-0.851,4.062v11.997c0,0.97,0.365,1.575,1.217,1.575h2.176
	c0.547,0,0.605,0.119,0.605,0.545v0.971c0,0.425-0.059,0.666-0.479,0.666c-0.552,0-2.185-0.183-5.517-0.183
	c-3.211,0-5.149,0.183-5.641,0.183c-0.355,0-0.482-0.121-0.482-0.546v-1.091c0-0.485,0.127-0.545,0.729-0.545h2.061
	c0.545,0,0.851-0.363,0.912-1.516c0.059-1.027,0.059-2.119,0.059-3.15V26.36c0-1.213-0.242-2.305-1.697-3.093l-1.275-0.665
	c-0.305-0.184-0.422-0.303-0.422-0.486v-0.483c0-0.182,0.242-0.425,0.363-0.483l5.332-2.729c0.484-0.242,0.911-0.362,1.156-0.362
	c0.355,0,0.541,0.425,0.541,0.845l0.246,3.516h0.179c1.815-2.482,5.39-4.602,8.905-4.602c3.152,0,5.574,1.816,6.848,4.665h0.305
	c1.82-2.364,5.27-4.665,8.91-4.665c2.121,0,3.998,0.361,5.449,1.816c1.396,1.453,2.91,2.785,2.91,7.454v13.511
	c0,0.908,0.548,1.213,1.275,1.213h1.635c0.545,0,0.664,0.119,0.664,0.545v1.029c0,0.425-0.119,0.607-0.424,0.607
	c-0.424,0-2.121-0.183-5.027-0.183c-3.029,0-5.213,0.183-5.637,0.183c-0.363,0-0.486-0.183-0.486-0.607v-1.029
	c0-0.426,0.123-0.545,0.789-0.545h1.516c0.666,0,1.152-0.305,1.211-1.15c0.123-1.393,0.123-3.574,0.123-4.907v-8.971
	c0-1.998-0.365-3.757-1.759-4.849c-1.091-0.848-2.668-1.273-4.485-1.273c-1.816,0-4.297,1.396-5.273,3.152
	c-0.904,1.76-0.846,3.393-0.846,6.121v10.484c0,0.787,0.303,1.393,1.213,1.393h2.06c0.546,0,0.667,0.119,0.667,0.545v0.971
	c0,0.483-0.121,0.666-0.426,0.666c-0.422,0-1.996-0.183-5.391-0.183c-3.269,0-5.332,0.183-5.695,0.183
	c-0.303,0-0.43-0.183-0.43-0.607v-0.969c0-0.486,0.063-0.605,0.609-0.605h1.758c0.971,0,1.334-0.242,1.334-1.03V28.298z"/>
<path fill="#FFFFFF" d="M508.521,30.479c-2.182,1.636-8.121,2.85-8.121,7.881c0,2.238,1.334,3.329,3.15,3.329
	c1.76,0,4.971-2.12,4.971-3.757V30.479z M512.947,36.599c0,3.455,0.727,4.546,1.817,4.546c0.968,0,1.815-0.483,2.122-0.909
	c0.236-0.304,0.359-0.424,0.604-0.24l0.604,0.482c0.186,0.184,0.305,0.486-0.059,1.092c-0.486,0.908-1.639,2.968-4.729,2.968
	c-2.184,0-3.756-1.573-4.301-4.06h-0.123c-1.275,1.517-3.27,2.789-5.998,3.699c-1.15,0.36-2.242,0.36-3.574,0.36
	c-1.457,0-3.635-1.21-3.635-5.03c0-2.786,1.275-5.211,6.059-7.328c2.725-1.215,5.873-2.67,6.85-3.515v-3.88
	c-0.125-1.031-0.188-2.604-0.85-3.393c-0.67-0.789-1.877-1.334-3.634-1.334c-1.216,0-3.093,0.485-3.938,1.271
	c-0.852,0.788-0.305,1.699-0.305,2.79c0,2.121-0.73,3.455-3.211,3.455c-0.971,0-1.461-0.547-1.461-1.941
	c0-1.938,1.699-4.24,4.186-5.697c2.545-1.512,4.662-2.117,7.394-2.117c2.847,0,4,0.848,4.843,1.635
	c1.273,1.271,1.34,2.664,1.34,4.301v9.271V36.599z"/>
<path fill="#FFFFFF" d="M522.67,29.147c0,3.27,1.457,6.969,3.095,9.209c2,2.607,4.545,3.09,6.604,3.09
	c3.027,0,4.602-0.665,6.666-2.605c0.117-0.121,0.303-0.18,0.481,0l0.606,0.607c0.246,0.242,0.305,0.425,0,0.788
	c-1.758,1.999-5.633,4.302-9.758,4.302c-3.211,0-6.605-0.728-9.389-4.24c-2.244-2.969-2.729-5.516-2.729-8.241
	c0-7.091,4.967-14.239,12.969-14.239c6.298,0,8.24,3.633,8.24,4.906c-0.059,1.394-0.967,2.12-2.24,2.12
	c-1.393,0-2.426-0.786-3.336-2.425c-1.332-2.482-2.602-2.666-4.059-2.666C526.369,19.753,522.67,22.907,522.67,29.147"/>
<path fill="#FFFFFF" d="M540.686,57.202c0-1.271,1.332-2.363,2.785-2.363c1.154,0,2.244,0.545,2.789,0.668
	c0.423,0.059,0.906,0,1.273-0.364c0.906-1.091,3.996-7.999,4.844-10.362c-0.301-1.516-6.723-20.422-7.207-21.694
	c-0.73-1.512-1.273-2.544-2.854-2.544h-1.572c-0.422,0-0.484-0.181-0.484-0.547v-1.211c0-0.242,0.062-0.424,0.484-0.424
	c0.543,0,2.002,0.182,5.574,0.182c3.09,0,4.965-0.182,5.637-0.182c0.484,0,0.545,0.182,0.545,0.424v1.273
	c0,0.304-0.061,0.484-0.365,0.484h-1.148c-0.668,0-0.91,0.424-0.789,1.332c0.184,1.334,4.301,14.666,4.969,15.998h0.242
	c0.608-0.969,5.879-13.514,6.242-15.027c0.364-1.517-0.121-2.303-1.027-2.303h-0.975c-0.361,0-0.42-0.181-0.42-0.484v-1.213
	c0-0.303,0.059-0.484,0.359-0.484c0.789,0,2.062,0.182,4.969,0.182c1.637,0,3.031-0.182,3.699-0.182
	c0.365,0,0.365,0.243,0.365,0.484v1.15c0,0.366,0,0.547-0.307,0.547h-0.966c-0.671,0-1.519,0.301-2.12,1.091
	c-1.336,1.635-5.336,10.847-9.516,20.361c-2.969,6.727-5.332,12.362-6.422,14.358c-0.852,1.579-1.94,3.943-5.156,3.943
	C541.834,60.296,540.686,59.022,540.686,57.202"/>
</svg>
